<?xml version="1.0" encoding="UTF-8"?> <!-- Generator: Adobe Illustrator 24.0.3, SVG Export Plug-In . SVG Version: 6.00 Build 0) --> <svg xmlns="http://www.w3.org/2000/svg" xmlns:xlink="http://www.w3.org/1999/xlink" version="1.1" id="Layer_1" x="0px" y="0px" viewBox="0 0 400 400" style="enable-background:new 0 0 400 400;" xml:space="preserve"> <style type="text/css"> .st0{clip-path:url(#SVGID_2_);fill:#FFFFFF;} .st1{clip-path:url(#SVGID_2_);fill:none;stroke:#0292CB;stroke-width:23.625;stroke-miterlimit:10;} .st2{clip-path:url(#SVGID_2_);fill:#0292CB;} .st3{clip-path:url(#SVGID_2_);fill:#182958;} .st4{fill:none;stroke:#0292CB;stroke-width:2;} </style> <g> <defs> <rect id="SVGID_1_" x="-0.05" y="-0.74" width="400.74" height="400.74"></rect> </defs> <clipPath id="SVGID_2_"> <use xlink:href="#SVGID_1_" style="overflow:visible;"></use> </clipPath> <path class="st0" d="M377.56,199.63c0,97.88-79.35,177.24-177.23,177.24c-97.89,0-177.24-79.35-177.24-177.24 c0-97.89,79.35-177.24,177.24-177.24C298.21,22.39,377.56,101.74,377.56,199.63"></path> <path class="st1" d="M377.56,199.63c0,97.88-79.35,177.24-177.23,177.24c-97.89,0-177.24-79.35-177.24-177.24 c0-97.89,79.35-177.24,177.24-177.24C298.21,22.39,377.56,101.74,377.56,199.63z"></path> <path class="st2" d="M328.95,183.93c-13.76,0-26.43,6.2-26.43,20.17c0,11.78,8.86,17.93,18.97,24.71 c9.07,6.05,15.58,11.21,15.58,20.07c0,6.62-5,10.42-12.82,10.42c-13.66,0-18.56-13.45-19.39-28.51h-2.45 c0,18.3-0.16,25.54-0.47,30.96h2.45c0.47-3.08,0.99-4.69,2.4-4.69c0.83,0,1.88,0.42,3.6,1.51c3.96,1.93,9.17,3.96,18.92,3.96 c15.58,0,29.03-6.72,29.03-21.16c0-11.62-7.82-17.51-17.3-24.13c-13.45-9.38-18.82-12.56-18.82-20.48c0-6.41,4.64-9.9,10.89-9.9 c11.1,0,17.83,12.46,18.61,24.24h2.45c0-16.05,0.21-21.47,0.52-26.06h-2.45c-0.42,3.08-0.94,4.69-2.35,4.69 c-0.99,0-1.93-0.52-3.65-1.51C342.66,186.17,338.18,183.93,328.95,183.93 M289.39,185.75c-4.9,0-8.65-0.1-13.97-0.31v2.14 c5.68,0.21,9.23,3.02,9.23,10.48c0,3.75-0.89,8.6-2.82,14.91l-8.24,26.38l-14.07-42.79c-0.73-2.08-1.09-3.7-1.09-4.9 c0-3.18,2.4-3.91,7.3-4.07v-2.14c-3.65,0.21-9.85,0.31-16.58,0.31s-13.66-0.1-18.45-0.31v2.14c2.45,0.21,4.27,1.3,5.42,5 l7.25,22.15l-9.33,25.33l-15.53-43.52c-0.52-1.36-0.89-3.08-0.89-4.69c0-2.03,0.68-3.86,2.81-4.27v-2.14 c-2.97,0.21-7.87,0.31-14.18,0.31c-6.31,0-13.76-0.1-18.92-0.31v2.14c1.93,0.1,4.48,1.93,6.31,6.83l24.76,66.61 c1.72-0.1,3.65-0.21,5.58-0.21c1.93,0,3.96,0.1,5.63,0.21l15.06-42.38l13.87,42.38c1.72-0.1,3.65-0.21,5.58-0.21 c1.93,0,3.96,0.1,5.63,0.21l17.93-58.48c2.81-9.17,6.62-13.34,9.96-14.96v-2.14C295.49,185.65,292.15,185.75,289.39,185.75 M185.14,243.09c0-3.86,0.1-7.25,0.31-9.8h-2.45c-3.44,19.29-12.61,25.28-19.65,25.28h-3.54c-5.53,0-6.52-0.83-6.52-6.72v-27.78 h1.09c8.03,0,13.55,6.2,14.86,14.13h2.45c-0.52-8.13-0.68-11.68-0.68-15.17c0-1.51-0.05-2.97-0.05-4.8c0-2.5,0.1-5.68,0.42-10.37 h-2.45c-1.3,6.2-6.52,14.07-14.54,14.07h-1.09v-27.31c0-5.84,0.99-6.72,6.52-6.72h1.41c8.76,0,16.99,5.47,19.65,23.2h2.45 c-0.21-1.82-0.31-4.74-0.31-7.71c0-3.54,0.21-10.79,0.73-17.93c-6.62,0.31-15.79,0.31-22.31,0.31c-7.66,0-24.97,0-37.37-0.31v2.14 c6.41,0.31,7.61,1.41,7.61,9.17v52.96c0,7.77-1.09,8.86-7.61,9.17v2.14c12.41-0.31,29.71-0.31,37.37-0.31c7.14,0,17.2,0,24.45,0.31 C185.14,253.98,185.14,246.63,185.14,243.09 M118.53,185.44c-2.14,0.21-5.68,0.31-8.86,0.31c-3.96,0-9.07-0.1-11.94-0.31v2.14 c10.11,1.41,10.74,4.48,10.74,18.76v25.23l-43.63-46.13c-2.66,0.21-6.31,0.31-9.85,0.31c-3.18,0-6.72-0.1-8.86-0.31v2.14 c6.41,0.31,7.61,1.41,7.61,9.17v45.5c0,12.04-1.09,15.22-7.61,16.63v2.14c2.14-0.21,5.68-0.31,8.86-0.31 c3.96,0,9.12,0.1,11.99,0.31v-2.14c-10.16-1.41-10.79-4.48-10.79-18.76v-30.75l47.28,51.66c1.41-0.1,2.71-0.16,4.01-0.16 c1.25,0,2.45,0.05,3.49,0.16v-56.82c0-12.04,1.04-15.22,7.56-16.63V185.44z"></path> <path class="st3" d="M304.86,145.99h-24.18l12.25-31.85L304.86,145.99z M297.61,100.64h-1.72l-25.12,64.69 c-2.45,6.41-5.63,8.65-8.39,9.28v2.14c2.14-0.21,4.38-0.31,7.98-0.31c3.75,0,8.24,0.1,12.3,0.31v-2.14 c-6.1-0.16-9.28-1.77-9.28-6.41c0-2.19,0.68-5.06,2.14-8.76l4.38-11.31h25.75l6.57,17.51c0.83,2.14,1.25,3.75,1.25,5 c0,2.97-2.4,3.75-7.56,3.96v2.14c3.02-0.21,8.13-0.31,13.66-0.31c4.07,0,8.55,0.1,11.47,0.31v-2.14c-2.24-0.1-5.26-1.41-7.4-6.83 L297.61,100.64z M261.44,101.48c-3.75,0-8.24-0.1-12.3-0.31v2.14c6.2,0.16,9.12,1.72,9.12,6.57c0,2.19-0.57,5-1.72,8.6 l-13.19,41.28l-15.32-47.49c-0.73-2.24-1.09-3.91-1.09-5.16c0-3.28,2.55-3.6,7.3-3.8v-2.14c-3.02,0.21-8.13,0.31-13.66,0.31 c-3.65,0-7.82-0.1-10.37-0.31v2.14c1.93,0.1,4.48,1.3,6.31,6.83l2.81,8.39l-12.93,41.33l-15.64-47.59 c-0.73-2.24-1.15-3.96-1.15-5.26c0-2.45,1.51-3.44,5.21-3.7v-2.14c-2.55,0.21-6.83,0.31-11.52,0.31c-4.07,0-8.55-0.1-11.42-0.31 v2.14c2.24,0.1,5.42,1.3,7.35,6.83l22.62,67.14h0.89h0.83l16.99-54.99l18.56,54.99h0.83h0.89l20.17-64.69 c2.03-6.52,5.63-8.65,8.44-9.28v-2.14C267.33,101.37,265.09,101.48,261.44,101.48 M142,174.29c-6.62,0-8.03-1.41-8.03-8.86v-27 h8.97c13.55,0,19.03,6.31,19.03,17.15C161.96,167.57,155.97,174.29,142,174.29 M141.89,103.3c10.69,0,14.96,5.42,14.96,15.9 c0,9.28-3.13,17.41-15.69,17.41h-7.19v-24.13C133.97,105.13,135.38,103.3,141.89,103.3 M150.86,136.61 c11.94-3.65,16.21-11,16.21-18.56c0-9.85-7.56-16.78-22.52-16.78c-2.55,0-9.38,0.21-16.11,0.21c-4.69,0-10.06-0.1-13.03-0.31v2.14 c7.25,0.31,8.65,1.41,8.65,9.17v52.96c0,7.77-1.41,8.86-8.65,9.17v2.14c2.97-0.21,8.24-0.31,13.24-0.31 c8.76,0,15.17,0.31,18.35,0.31c16,0,25.64-8.55,25.64-20.69c0-8.65-4.9-16.99-21.79-19.23V136.61z M106.45,101.16 c-3.28,0.21-8.65,0.31-13.55,0.31c-5.53,0-10.69-0.1-13.66-0.31v2.14c7.25,0.31,8.65,1.41,8.65,9.17v52.96 c0,7.77-1.41,8.86-8.65,9.17v2.14c2.97-0.21,8.13-0.31,13.66-0.31c4.9,0,10.27,0.1,13.55,0.31v-2.14 c-7.25-0.31-8.65-1.41-8.65-9.17v-52.96c0-7.77,1.41-8.86,8.65-9.17V101.16z"></path> <path class="st2" d="M203.05,279.49h-7.18c-0.26,0-0.46,0.21-0.46,0.47v0.36c0.01,0.22,0.16,0.39,0.36,0.44v0.68 c-0.2,0.05-0.36,0.22-0.36,0.45v0.35c0,0.22,0.16,0.39,0.36,0.44v4.32c0,0.33-0.07,0.65-0.2,0.97c-0.22,0.53-0.61,1.03-1.16,1.48 c-0.18,0.16-0.39,0.29-0.6,0.44c-0.74,0.44-1.66,0.76-2.6,1.09c-0.68,0.24-1.36,0.49-2.01,0.81c-0.46,0.22-0.89,0.48-1.27,0.79 c-0.02,0.01-0.05,0.03-0.05,0.06c-0.75,0.54-1.51,1.25-2.29,2.19c-0.03,0.03-0.05,0.05-0.08,0.08c-0.05,0.05-0.08,0.1-0.14,0.17 c0,0-0.58,0.8-0.79,1.25h-0.36c-0.56,0-1.03,0.34-1.21,0.8c-0.08,0.21-0.11,0.45-0.06,0.69l-0.04,0.69l-0.11,1.91l-0.01,0.12 c0,0.77,0.5,1.43,1.21,1.73l0.04,2.27l0.26,15.58c0,0,0.03,1.73,0.03,1.79c-0.54,0.01-0.99,0.36-1.17,0.83 c-0.08,0.21-0.11,0.46-0.06,0.7l0.02,2.9c0,0.86,0.55,1.59,1.31,1.88c0,0,0.04,2.11,0.04,2.16c-0.42,0.22-0.75,0.6-0.92,1.05 c-0.08,0.2-0.12,0.43-0.12,0.65c0,0.12,0.01,0.25,0.04,0.38l0.44,2.27c0.21,1.1,1.16,1.89,2.25,1.89h1.76h23.12h1.74 c1.1,0,2.04-0.79,2.26-1.89l0.44-2.27c0.17-0.87-0.28-1.7-1-2.08v0h0c0,0,0.04-2.11,0.04-2.16c0.76-0.28,1.31-1.01,1.31-1.87 l0.02-2.9c0.16-0.79-0.43-1.51-1.23-1.54l0.03-1.79l0,0h0l0.26-15.58h0c0-0.06,0.04-2.27,0.04-2.28c0.49-0.2,0.88-0.58,1.08-1.04 c0.09-0.21,0.14-0.44,0.14-0.68l-0.03-0.43h0l-0.14-2.3c0-0.84-0.46-1.48-1.27-1.48h-0.36c-0.21-0.45-0.48-0.86-0.81-1.27 c-0.01-0.01-0.02-0.02-0.03-0.04c-0.02-0.02-0.05-0.05-0.06-0.06c-0.82-1.02-1.61-1.76-2.39-2.33c-0.02-0.02-0.05-0.04-0.06-0.05 c-0.02-0.02-0.04-0.03-0.05-0.05c-0.37-0.28-0.76-0.52-1.22-0.74c-0.64-0.31-1.33-0.57-2.04-0.82c-0.93-0.32-1.82-0.64-2.55-1.06 c-1.26-0.83-1.99-1.83-1.99-2.91v-4.32c0.2-0.05,0.37-0.22,0.37-0.44v-0.35c0-0.23-0.17-0.4-0.37-0.45v-0.68 c0.2-0.05,0.36-0.22,0.37-0.44v-0.36C203.51,279.7,203.3,279.49,203.05,279.49"></path> <path class="st2" d="M202.65,277.71h-3.19h-3.19c-0.49,0-0.89,0.39-0.89,0.87v1.08c0,0.2,0.17,0.36,0.37,0.36h7.42 c0.21,0,0.37-0.16,0.37-0.36v-1.08C203.55,278.1,203.15,277.71,202.65,277.71"></path> <path class="st3" d="M168.73,330.81v-2.05l0.51-1.03l-0.51-1.05v-2.05l0.51-1.03l-0.51-1v-2.05l0.51-1.03l-0.51-1.1v-2.05 l0.51-1.03l-0.51-1.1v-8.42c0-2.12,1.38-3.49,2.43-4.72c0.89-1.05,1.24-2.53,1.32-2.96h-0.19c-0.12,0-0.22-0.09-0.22-0.2v-0.03 c0-0.11,0.1-0.2,0.22-0.2h0.26v-0.3c-0.07-0.06-0.13-0.14-0.14-0.24c-0.04-0.34-0.01-1.38-0.01-1.38c0-0.68,0.5-1.24,1.12-1.24 h2.98c0.62,0,1.12,0.55,1.12,1.24c0,0,0.03,1.04-0.01,1.38c-0.01,0.1-0.07,0.18-0.14,0.24v0.3h0.26c0.12,0,0.22,0.09,0.22,0.2v0.03 c0,0.11-0.1,0.2-0.22,0.2h-0.19c0.09,0.43,0.44,1.92,1.32,2.96c1.05,1.23,2.43,2.6,2.43,4.72v8.42l-0.51,1.1l0.51,1.03v2.05 l-0.51,1.1l0.51,1.03v2.05l-0.51,1l0.51,1.03v2.05l-0.51,1.05l0.51,1.03v2.05c0,0,0.15,2.66-0.22,3.69 c-0.37,1.03-1.26,2.12-2.39,2.12h-7.32c-1.13,0-2.02-1.1-2.39-2.12C168.58,333.47,168.73,330.81,168.73,330.81"></path> <path class="st3" d="M217.64,330.81v-2.05l0.51-1.03l-0.51-1.05v-2.05l0.51-1.03l-0.51-1v-2.05l0.51-1.03l-0.51-1.1v-2.05 l0.51-1.03l-0.51-1.1v-8.42c0-2.12,1.38-3.49,2.43-4.72c0.89-1.05,1.24-2.53,1.32-2.96h-0.19c-0.12,0-0.22-0.09-0.22-0.2v-0.03 c0-0.11,0.1-0.2,0.22-0.2h0.26v-0.3c-0.07-0.06-0.13-0.14-0.14-0.24c-0.04-0.34-0.01-1.38-0.01-1.38c0-0.68,0.5-1.24,1.12-1.24 h2.98c0.62,0,1.12,0.55,1.12,1.24c0,0,0.03,1.04-0.01,1.38c-0.01,0.1-0.07,0.18-0.14,0.24v0.3h0.26c0.12,0,0.22,0.09,0.22,0.2v0.03 c0,0.11-0.1,0.2-0.22,0.2h-0.19c0.09,0.43,0.44,1.92,1.32,2.96c1.05,1.23,2.43,2.6,2.43,4.72v8.42l-0.51,1.1l0.51,1.03v2.05 l-0.51,1.1l0.51,1.03v2.05l-0.51,1l0.51,1.03v2.05l-0.51,1.05l0.51,1.03v2.05c0,0,0.15,2.66-0.22,3.69 c-0.37,1.03-1.26,2.12-2.39,2.12h-7.32c-1.13,0-2.02-1.1-2.39-2.12C217.49,333.47,217.64,330.81,217.64,330.81"></path> </g> <line class="st4" x1="234.61" y1="315.72" x2="270.96" y2="315.72"></line> <line class="st4" x1="127.96" y1="315.72" x2="164.32" y2="315.72"></line> </svg> 