<?xml version="1.0" encoding="UTF-8"?> <!-- Generator: Adobe Illustrator 24.0.1, SVG Export Plug-In . SVG Version: 6.00 Build 0) --> <svg xmlns="http://www.w3.org/2000/svg" xmlns:xlink="http://www.w3.org/1999/xlink" id="Layer_1" x="0px" y="0px" viewBox="0 0 686.70612 490.24924" style="enable-background:new 0 0 686.70612 490.24924;" xml:space="preserve"> <style type="text/css"> .st0{fill:#FFFFFF;} </style> <g> <path class="st0" d="M330.02338,210.59738c-108.34785,0-216.68976,0-325.0376,0c-0.69852,0-1.40301,0.07761-2.08958-0.01791 c-1.15823-0.16716-2.85974,0.82986-2.89557-1.69554c-0.03582-2.39407,1.46868-1.8687,2.76422-1.87466 c3.88065-0.0239,7.76131-0.00598,11.64196-0.00598c56.50829,0,113.02255-0.02388,169.53082,0.00598 c57.60086,0.02985,115.20769,0.16716,172.80852,0.15523c99.88803-0.01193,199.77008-0.1015,299.65814-0.16119 c0.89551,0,1.79108-0.03581,2.68658,0.02985c1.54626,0.10747,1.07471,1.37315,1.24182,2.26869 c0.22089,1.17015-0.47766,1.33136-1.39105,1.3015c-0.79401-0.02388-1.59406,0-2.38812,0 C547.71014,210.59738,438.86676,210.59738,330.02338,210.59738z"></path> <g> <path class="st0" d="M360.47751,60.6728c-0.91345,0.54926-0.85971,1.41494-1.06271,2.15525 c-10.33447,37.08711-20.69284,74.16824-30.93179,111.2852c-0.65079,2.36421-1.57019,3.05676-4.00006,3.01497 c-9.1524-0.16718-18.30475-0.14328-27.45712-0.00598c-2.02988,0.02985-2.68661-0.70448-3.09854-2.48959 c-8.4061-36.25726-16.84802-72.5145-25.30188-108.7598c-4.82394-20.68687-9.67773-41.36777-14.52557-62.04867 c-0.87762-3.75528-0.89554-3.74931,2.99109-3.74931c10.04791,0,20.09583,0.0597,30.14374-0.04776 c2.08957-0.02388,2.84183,0.54329,3.25378,2.6687c6.01797,30.99746,12.14343,61.97105,18.24506,92.94465 c1.57016,7.97623,3.14633,15.95247,4.7702,24.17348c1.36124-1.14031,1.30151-2.59108,1.6239-3.78513 c10.03595-37.6901,20.04807-75.38617,29.9646-113.11211c0.59702-2.26272,1.49255-2.95527,3.79706-2.90751 c7.55832,0.15523,15.12262,0.17314,22.68094-0.00597c2.45972-0.0597,3.39108,0.70449,4.01794,3.06273 c10.08972,38.09011,20.28091,76.15038,30.44821,114.22256c0.22687,0.84779,0.51941,1.68361,1.28955,2.56123 c0.95523-4.72843,1.93436-9.44492,2.85974-14.17931c6.08368-31.18255,12.1554-62.37107,18.23309-93.55959 c0.66269-3.40901,1.42688-6.8001,1.99408-10.22701c0.22687-1.36718,0.78207-1.83286,2.1254-1.82689 c11.04492,0.03582,22.08389,0.04179,33.12885,0c2.88361-0.01194,1.37314,1.87465,1.15225,2.82392 c-4.0896,17.80325-8.26877,35.5826-12.42407,53.36795c-9.14642,39.14685-18.31668,78.28772-27.37354,117.45844 c-0.59103,2.54929-1.37912,3.5105-4.17319,3.44482c-8.94937-0.2209-17.90472-0.14926-26.86008-0.02985 c-2.09555,0.02985-3.05676-0.49553-3.65378-2.65079c-10.30463-37.20055-20.70477-74.37721-31.09302-111.55388 C361.03873,62.15938,360.74619,61.43699,360.47751,60.6728z"></path> <path class="st0" d="M73.60168,88.39857c0,28.54967-0.03582,57.10532,0.05971,85.65498 c0.00597,2.51347-0.64479,3.10454-3.10452,3.06871c-9.84492-0.14925-19.69582-0.11343-29.54671-0.0179 c-2.04182,0.0179-2.89557-0.23882-2.88959-2.66272C38.19818,117.24081,38.19818,60.034,38.13251,2.83316 c0-2.21496,0.53732-2.8478,2.79407-2.81795C50.873,0.14058,60.82538,0.16446,70.7718,0.00327 c2.48959-0.04179,2.87766,0.83583,2.87168,3.04482C73.5778,31.49624,73.60168,59.94443,73.60168,88.39857z"></path> <g> <path class="st0" d="M241.30563,123.04386c-0.8239-19.90477-12.55542-33.93482-32.09003-38.1319 c0.71046-1.15225,1.77913-1.25375,2.62689-1.68362c6.80608-3.48064,12.29869-8.33445,16.10173-15.03305 c12.36436-21.76151,2.5672-49.97685-21.09882-60.77104c-12.4718-5.68963-25.73769-7.2419-39.23041-7.32548 c-18.59729-0.1194-37.20055,0.01791-55.79783-0.08955c-2.41197-0.01194-3.15229,0.48359-3.14632,3.04482 c0.08359,56.99188,0.07762,113.98376,0.00597,170.97565c-0.00597,2.45377,0.54329,3.10454,3.05676,3.09258 c21.98242-0.11343,43.96481-0.0179,65.94125-0.08359c10.07179-0.02985,20.04807-1.02689,29.67804-4.18513 c15.4032-5.05679,26.9377-14.22707,31.76762-30.35866C241.01907,136.14851,241.5743,129.64096,241.30563,123.04386z M145.90125,27.52604c10.51358,0.26269,21.09286-0.84777,31.52882,0.96718c9.28371,1.61196,16.69278,5.84486,19.07492,15.86889 c3.77319,15.90471-4.5553,27.52876-21.31375,29.30192c-9.68971,1.02689-19.457,0.20897-29.18851,0.40598 c-1.89256,0.03582-1.72539-1.14629-1.71942-2.35824c0.00597-7.05682,0-14.11364,0-21.16449 c0-6.85383-0.00597-13.71363,0.00597-20.56746C144.28929,28.83352,143.95496,27.47828,145.90125,27.52604z M202.79164,138.47095 c-3.85677,6.53145-10.11359,9.22998-17.19427,10.51956c-3.04482,0.55522-6.11351,0.63284-9.20612,0.62091 c-9.84491-0.03583-19.68985-0.07762-29.52878,0.03581c-2.08958,0.02388-2.6687-0.55522-2.63287-2.63885 c0.12537-7.55234,0.04776-15.11067,0.04776-22.66898c0-7.55833,0.07164-15.11665-0.04776-22.66899 c-0.02986-2.08958,0.32239-2.91348,2.70451-2.87766c10.53746,0.14926,21.0809-0.07761,31.61836,0.10746 c8.35834,0.14926,16.2271,1.9642,21.89883,8.85387C206.77975,115.43778,207.85439,129.90964,202.79164,138.47095z"></path> </g> <g> <path class="st0" d="M665.55664,65.59226c-8.1792-3.3075-16.71667-5.09261-25.52277-5.43291 c-17.48682-0.66866-34.11395,3.1881-50.10223,10.00611c-2.43585,1.03883-3.3194,0.89554-4.21497-1.83286 c-7.224-21.94659-14.6629-43.82751-21.94061-65.75619c-0.64478-1.94033-1.48657-2.58511-3.54034-2.5672 c-10.14343,0.11344-20.29285,0.12537-30.43628,0c-2.42389-0.02985-3.58215,0.56717-4.41797,3.05676 c-16.42413,48.99773-32.96768,97.95964-49.48132,146.92155c-3.009,8.91356-6.00607,17.82713-9.00314,26.72874 c0.38809,0.16718,0.55524,0.30449,0.72241,0.30449c11.5405,0.01791,23.07498-0.01791,34.61545,0.07164 c1.77911,0.01193,2.03583-0.93733,2.45374-2.26868c4.10156-13.26587,8.27472-26.51382,12.41211-39.76775 c0.50745-1.6239,1.06866-3.1463,2.3941-4.36424c11.83301-10.85388,24.28687-20.80627,38.96173-27.68398 c2.48364-1.16419,3.27167-0.88956,4.10156,1.80898c7.18817,23.32571,14.53754,46.59174,21.82721,69.88759 c0.38806,1.23584,0.49554,2.40601,2.37012,2.38809c11.73157-0.07761,23.46307-0.04179,35.58264-0.04179 c-1.45081-4.29857-2.74628-8.14342-4.03589-11.98227c-7.98816-23.7914-15.92859-47.6007-24.03613-71.3503 c-0.91351-2.68064-0.3642-3.3493,2.25671-3.63587c11.83301-1.29554,22.51971,1.14629,31.58258,9.22999 c3.87469,3.4508,7.04492,7.55235,10.53149,11.36733c5.16431,5.64188,10.60315,10.85388,18.72266,11.76733 c14.40021,1.61793,25.18842-4.81799,28.50787-18.03608C689.67041,89.28814,680.12994,71.48489,665.55664,65.59226z M555.83563,89.74785c-11.43896,7.68369-21.33765,17.15846-31.12286,26.77055c-0.28058,0.27463-0.5672,0.56718-0.90747,0.74628 c-0.23883,0.12537-0.57318,0.06567-1.14032,0.10746c7.24786-22.93168,14.42407-45.63649,21.60626-68.34129 c0.22693-0.00597,0.4538-0.01194,0.67468-0.02388c1.13434,3.60602,2.26868,7.21205,3.39703,10.82404 c2.78809,8.88968,5.54633,17.79727,8.40613,26.66308C557.20874,87.93887,557.19684,88.8344,555.83563,89.74785z M669.84918,104.04656c-4.21503,2.14331-10.00012,0.88957-13.92255-2.98512c-1.85077-1.8269-3.49854-3.84484-4.75824-6.09562 c-7.03894-12.57332-18.40027-18.80028-31.93481-21.79733c-2.97314-0.65673-6.01794-0.96717-9.31354-1.48061 c4.91351-2.05973,9.94641-2.41197,14.9256-3.02094c11.9942-1.47466,23.82721-0.99703,35.21246,3.47468 c8.39417,3.29557,14.04797,9.26581,16.07788,18.18535C677.33588,95.58077,674.2851,101.78981,669.84918,104.04656z"></path> <path class="st0" d="M617.10217,46.86364c2.72839,0.50747,5.44489,1.22987,8.19714,1.4448 c8.58521,0.66866,16.37042-5.5165,17.75549-13.90468c1.58209-9.58223-3.4986-18.20325-12.19727-20.41224 c-7.10461-1.79704-13.64197,0.19702-19.5943,3.92245c-10.31659,6.4598-17.00317,15.91665-21.3316,27.1407 c-1.28955,3.34333-2.25079,6.76428-2.29852,10.6927c1.80298-0.49553,2.88959-1.54033,3.95825-2.53735 C598.94073,46.38602,607.63342,45.09047,617.10217,46.86364z M630.46356,20.66027 c3.37921,1.14629,5.38519,3.68961,5.52844,6.99712c0.14331,3.24781-1.5105,6.07771-4.22687,7.24787 c-3.06274,1.31345-5.86273,0.63284-8.59119-2.13735c-2.84784-2.89556-6.32245-4.3523-10.34045-4.6747 c-0.83582-0.06567-1.76715,0.31045-2.51941-0.39404C614.28424,22.11701,624.39777,18.59457,630.46356,20.66027z"></path> </g> </g> </g> <path class="st0" d="M50.7715,233.00368v56.19783h-7.61802v-56.19783H50.7715z"></path> <path class="st0" d="M64.07915,289.20749v-56.19785h8.31654l18.91371,28.43625c4.37618,6.58517,7.79116,12.50766,10.59717,18.26297 l0.17313-0.08359c-0.69852-7.50461-0.87762-14.34052-0.87762-23.09885v-23.51678h7.18219v56.19785h-7.70757L81.9421,260.69363 c-4.11349-6.25682-8.05385-12.67482-11.03299-18.75848l-0.2627,0.08359c0.43583,7.08667,0.61494,13.839,0.61494,23.1824v24.0123 h-7.1822V289.20749z"></path> <path class="st0" d="M132.89807,239.1769h-17.94653v-6.17322h43.69019v6.17322h-18.03609v50.03059h-7.70758V239.1769z"></path> <path class="st0" d="M195.76466,262.85486h-22.93765v20.26297h25.56454v6.08966h-33.18257v-56.19785h31.86913v6.08966h-24.2511 v17.76144h22.93764v5.99411H195.76466z"></path> <path class="st0" d="M208.27829,233.75594c3.85081-0.75226,9.36731-1.17017,14.62111-1.17017 c8.1434,0,13.3972,1.42091,17.07487,4.58513c2.97914,2.50154,4.63887,6.33443,4.63887,10.67479 c0,7.42101-4.90157,12.3405-11.11658,14.3405v0.25073c4.5553,1.49854,7.26578,5.50455,8.66878,11.33749 c1.92839,7.83893,3.32542,13.25989,4.5553,15.42709h-7.88072c-0.9612-1.58212-2.27466-6.418-3.94037-13.42706 c-1.74927-7.75531-4.90155-10.67477-11.82106-10.92551h-7.18219v24.34665h-7.61803v-55.43965H208.27829z M215.8963,259.35629 h7.79115c8.14342,0,13.30766-4.25079,13.30766-10.67477c0-7.25383-5.51649-10.42403-13.57036-10.50761 c-3.67767,0-6.30457,0.33434-7.52846,0.66866V259.35629z"></path> <path class="st0" d="M255.38345,289.20749v-56.19785h8.31653l18.91373,28.43625c4.37616,6.58517,7.79114,12.50766,10.59717,18.26297 l0.17313-0.08359c-0.69852-7.50461-0.87762-14.34052-0.87762-23.09885v-23.51678h7.18222v56.19785h-7.70758l-18.73462-28.51385 c-4.11349-6.25682-8.05383-12.67482-11.03299-18.75848l-0.2627,0.08359c0.43582,7.08667,0.61493,13.839,0.61493,23.1824v24.0123 h-7.18219V289.20749z"></path> <path class="st0" d="M322.53665,271.52963l-6.13144,17.67786h-7.88071l20.04807-56.19785h9.19418l20.13757,56.19785h-8.1434 l-6.30457-17.67786H322.53665z M341.88623,265.85791l-5.77921-16.17337c-1.31345-3.67169-2.19104-7.0031-3.06271-10.25687h-0.17313 c-0.87762,3.33736-1.83884,6.75233-2.97916,10.17329l-5.77917,16.25694H341.88623z"></path> <path class="st0" d="M371.04483,239.1769H353.0983v-6.17322h43.69019v6.17322h-18.03607v50.03059h-7.70758V239.1769z"></path> <path class="st0" d="M410.9678,233.00368v56.19783h-7.61801v-56.19783H410.9678z"></path> <path class="st0" d="M474.71204,260.52048c0,19.34357-12.34644,29.60043-27.40341,29.60043 c-15.58231,0-26.53171-11.50464-26.53171-28.51385c0-17.84505,11.64194-29.51685,27.40338-29.51685 C464.28799,232.09023,474.71204,243.84563,474.71204,260.52048z M428.92032,261.43991 c0,12.00613,6.82996,22.76453,18.82416,22.76453c12.08377,0,18.91373-10.59122,18.91373-23.34961 c0-11.17029-6.13147-22.84807-18.82419-22.84807C435.22488,238.00673,428.92032,249.09943,428.92032,261.43991z"></path> <path class="st0" d="M484.60474,289.20749v-56.19785h8.31653l18.9137,28.43625c4.37622,6.58517,7.79114,12.50766,10.59119,18.26297 l0.17316-0.08359c-0.69855-7.50461-0.87762-14.34052-0.87762-23.09885v-23.51678h7.18219v56.19785h-7.70752l-18.73462-28.51385 c-4.11353-6.25682-8.05386-12.67482-11.03299-18.75848l-0.2627,0.08359c0.43582,7.08667,0.61496,13.839,0.61496,23.1824v24.0123 h-7.17627V289.20749z"></path> <path class="st0" d="M551.75793,271.52963l-6.13147,17.67786h-7.88068l20.04803-56.19785h9.19421l20.13757,56.19785h-8.14343 l-6.30457-17.67786H551.75793z M571.10748,265.85791l-5.77917-16.17337c-1.31348-3.67169-2.19104-7.0031-3.06274-10.25687h-0.1731 c-0.87762,3.33736-1.83887,6.75233-2.97919,10.17329l-5.77917,16.25694H571.10748z"></path> <path class="st0" d="M595.79443,233.00368h7.61798v50.11415h25.21832v6.08966h-32.8363V233.00368L595.79443,233.00368z"></path> <path class="st0" d="M38.29371,333.81708c3.32542-0.66867,8.57923-1.17017,13.92259-1.17017 c7.61802,0,12.51958,1.25372,16.19725,4.08365c3.06273,2.16721,4.90157,5.50455,4.90157,9.92252 c0,5.42099-3.76722,10.17328-9.98224,12.34048v0.16718c5.60605,1.33734,12.16734,5.75531,12.16734,14.08975 c0,4.83588-2.01196,8.5076-4.99112,11.25388c-4.11349,3.58813-10.77031,5.25381-20.4003,5.25381 c-5.25381,0-9.28372-0.33435-11.82107-0.66867v-55.27243H38.29371z M45.91173,356.83234h6.91951 c8.05385,0,12.78228-4.00006,12.78228-9.42105c0-6.58517-5.25381-9.17029-12.95541-9.17029 c-3.50453,0-5.5165,0.25076-6.7404,0.50153v18.08981H45.91173z M45.91173,383.7641c1.48659,0.25073,3.67766,0.33432,6.39412,0.33432 c7.88071,0,15.14649-2.75226,15.14649-10.92551c0-7.67175-6.9195-10.84195-15.23604-10.84195h-6.30457V383.7641z"></path> <path class="st0" d="M136.1817,360.58765c0,19.34357-12.34644,29.60043-27.40337,29.60043 c-15.58232,0-26.53174-11.50467-26.53174-28.51385c0-17.84503,11.64196-29.51685,27.40338-29.51685 C125.76365,332.1514,136.1817,343.9068,136.1817,360.58765z M90.38999,361.50107c0,12.00613,6.82996,22.76453,18.82416,22.76453 c12.08376,0,18.91372-10.59122,18.91372-23.34961c0-11.17032-6.13144-22.84808-18.82416-22.84808 C96.69456,338.07385,90.38999,349.16058,90.38999,361.50107z"></path> <path class="st0" d="M155.09541,339.23807h-17.94653v-6.17325h43.69019v6.17325h-18.03607v50.03058h-7.70758V339.23807z"></path> <path class="st0" d="M201.93193,339.23807H183.9854v-6.17325h43.69019v6.17325h-18.03607v50.03058h-7.70758V339.23807z"></path> <path class="st0" d="M234.24284,333.0708h7.61803v50.11417h25.21826v6.08966h-32.83031V333.0708H234.24284z"></path> <path class="st0" d="M306.12448,362.922h-22.93762v20.26297h25.56454v6.08966h-33.18259v-56.19785h31.86914v6.08963h-24.2511 v17.76147h22.93762V362.922z"></path> <path class="st0" d="M318.6441,333.81708c4.63889-0.66867,10.15536-1.17017,16.19724-1.17017 c10.94345,0,18.73462,2.41794,23.90482,7.00305c5.25381,4.58514,8.31656,11.09271,8.31656,20.17941 c0,9.17026-2.97916,16.67487-8.48969,21.84509c-5.51648,5.25381-14.62109,8.08969-26.08994,8.08969 c-5.42694,0-9.98221-0.25076-13.83301-0.66867v-55.27841H318.6441z M326.26208,383.51334 c1.92838,0.33432,4.72842,0.41791,7.70755,0.41791c16.28683,0,25.12875-8.67477,25.12875-23.84512 c0.08957-13.25992-7.79114-21.67792-23.90482-21.67792c-3.94034,0-6.91953,0.33432-8.93149,0.75226V383.51334z"></path> <path class="st0" d="M401.99457,389.26865l-14.97336-56.19785h8.05383l7.00308,28.43625 c1.74927,7.00308,3.32541,14.0062,4.37619,19.42712h0.17313c0.96118-5.58813,2.80005-12.2569,4.81796-19.51071l7.88074-28.35266 h7.97025l7.18222,28.51984c1.66568,6.66873,3.24182,13.34348,4.11349,19.25998h0.17313 c1.22388-6.16727,2.88962-12.42404,4.72842-19.42712l7.79114-28.35266h7.79117l-16.72263,56.19781h-7.96429l-7.44489-29.26611 c-1.83884-7.17026-3.06271-12.6748-3.8508-18.34653h-0.17313c-1.05075,5.58813-2.36423,11.09271-4.5553,18.34653l-8.4061,29.26611 H401.99457z"></path> <path class="st0" d="M470.9866,371.59079l-6.12546,17.67786h-7.88071l20.04807-56.19785h9.19415l20.1376,56.19785h-8.1434 l-6.30457-17.67786H470.9866z M490.33612,365.92502l-5.77917-16.17337c-1.31345-3.67172-2.19107-7.00308-3.06274-10.25687h-0.1731 c-0.87762,3.33737-1.83887,6.75235-2.97916,10.17328l-5.77917,16.25693h17.77335V365.92502z"></path> <path class="st0" d="M519.49481,339.23807h-17.94656v-6.17325h43.69022v6.17325h-18.03613v50.03058h-7.70752V339.23807z"></path> <path class="st0" d="M582.35541,362.922h-22.93762v20.26297h25.56451v6.08966h-33.18256v-56.19785h31.86914v6.08963h-24.2511 v17.76147h22.93762V362.922z"></path> <path class="st0" d="M594.875,333.81708c3.85083-0.75226,9.36725-1.17017,14.62109-1.17017 c8.14343,0,13.39722,1.4209,17.07489,4.58511c2.97913,2.50156,4.63885,6.33441,4.63885,10.6748 c0,7.42099-4.90155,12.34045-11.11658,14.34052v0.25073c4.54932,1.49854,7.26581,5.50455,8.66882,11.33749 c1.92834,7.8389,3.32538,13.25989,4.5553,15.42709h-7.88068c-0.96124-1.58212-2.27472-6.418-3.94037-13.42706 c-1.74933-7.75531-4.90155-10.67477-11.82111-10.92551h-7.18219v24.34662H594.875V333.81708z M602.49304,359.41745h7.7912 c8.14337,0,13.30768-4.25079,13.30768-10.67477c0-7.25385-5.51654-10.42404-13.57037-10.5076 c-3.67767,0-6.30457,0.33432-7.52844,0.66867v20.5137H602.49304z"></path> <g> <path class="st0" d="M110.4082,471.6579l-6.13144,17.67789h-7.88071l20.04805-56.19785h9.19416l20.13762,56.19189h-8.1434 l-6.30457-17.67786H110.4082V471.6579z M129.75774,465.98618l-5.7792-16.17337c-1.31345-3.67172-2.19108-7.00308-3.06274-10.25687 h-0.17313c-0.87762,3.33737-1.83883,6.75232-2.97915,10.17328l-5.77918,16.25693h17.7734V465.98618z"></path> <path class="st0" d="M153.39389,480.49387c3.41498,2,8.4061,3.67169,13.65991,3.67169c7.79115,0,12.34645-3.91647,12.34645-9.5882 c0-5.25381-3.15228-8.25684-11.11658-11.17032c-9.62999-3.25378-15.58232-8.00607-15.58232-15.92859 c0-8.75235,7.61803-15.25992,19.08685-15.25992c6.04187,0,10.41806,1.33731,13.04497,2.75226l-2.10152,5.92245 c-1.92839-1.00299-5.86874-2.66867-11.20613-2.66867c-8.05385,0-11.11658,4.58514-11.11658,8.42401 c0,5.25378,3.5881,7.8389,11.73151,10.84192c9.98224,3.67172,15.05695,8.25684,15.05695,16.50772 c0,8.67477-6.7404,16.1734-20.66299,16.1734c-5.68964,0-11.90465-1.58215-15.05693-3.58813L153.39389,480.49387z"></path> <path class="st0" d="M196.55872,480.49387c3.41496,2,8.40608,3.67169,13.6599,3.67169c7.79115,0,12.34645-3.91647,12.34645-9.5882 c0-5.25381-3.15228-8.25684-11.11658-11.17032c-9.63-3.25378-15.58232-8.00607-15.58232-15.92859 c0-8.75235,7.61803-15.25992,19.08684-15.25992c6.04189,0,10.41808,1.33731,13.04497,2.75226l-2.10152,5.92245 c-1.92839-1.00299-5.86873-2.66867-11.20612-2.66867c-8.05385,0-11.11658,4.58514-11.11658,8.42401 c0,5.25378,3.58812,7.8389,11.73151,10.84192c9.98224,3.67172,15.05693,8.25684,15.05693,16.50772 c0,8.67477-6.7404,16.1734-20.66299,16.1734c-5.68964,0-11.90465-1.58215-15.05693-3.58813L196.55872,480.49387z"></path> <path class="st0" d="M291.20486,460.6488c0,19.34357-12.34644,29.60043-27.40338,29.60043 c-15.58232,0-26.53172-11.50467-26.53172-28.51385c0-17.84506,11.64195-29.51685,27.40337-29.51685 C280.7868,432.21255,291.20486,443.97394,291.20486,460.6488z M245.41316,461.56824c0,12.00613,6.82996,22.7645,18.82417,22.7645 c12.08374,0,18.9137-10.59119,18.9137-23.34958c0-11.17032-6.13144-22.84811-18.82416-22.84811 C251.71773,438.13504,245.41316,449.22772,245.41316,461.56824z"></path> <path class="st0" d="M342.33994,487.49695c-2.80005,1.33136-8.4061,2.6687-15.58231,2.6687 c-16.63306,0-29.15863-10.00613-29.15863-28.43027c0-17.59427,12.51959-29.51685,30.81839-29.51685 c7.35532,0,11.9942,1.49854,14.0062,2.50153l-1.83887,5.92245c-2.88959-1.33136-7.00305-2.33435-11.90463-2.33435 c-13.83307,0-23.02722,8.42401-23.02722,23.18243c0,13.75543,8.31653,22.59735,22.67496,22.59735 c4.63889,0,9.36731-0.9194,12.43002-2.33435L342.33994,487.49695z"></path> <path class="st0" d="M359.49841,433.13199v56.19785h-7.61804v-56.19785H359.49841z"></path> <path class="st0" d="M382.3465,471.6579l-6.13144,17.67789h-7.88071l20.04807-56.19785h9.19418l20.13757,56.19785h-8.1434 l-6.30457-17.67789H382.3465z M401.702,465.98618l-5.77917-16.17337c-1.31348-3.67172-2.19107-7.00308-3.06274-10.25687h-0.17313 c-0.87759,3.33737-1.83884,6.75232-2.97913,10.17328l-5.77921,16.25693H401.702V465.98618z"></path> <path class="st0" d="M430.85468,439.30521h-17.94653v-6.17325h43.69019v6.17325h-18.0361v50.03058h-7.70755V439.30521z"></path> <path class="st0" d="M470.77765,433.13199v56.19785h-7.61804v-56.19785H470.77765z"></path> <path class="st0" d="M534.52185,460.6488c0,19.34357-12.34644,29.60043-27.40338,29.60043 c-15.58231,0-26.53174-11.50467-26.53174-28.51385c0-17.84506,11.64197-29.51685,27.40341-29.51685 C524.10382,432.21255,534.52185,443.97394,534.52185,460.6488z M488.73016,461.56824c0,12.00613,6.82996,22.7645,18.82416,22.7645 c12.08374,0,18.9137-10.59119,18.9137-23.34958c0-11.17032-6.13141-22.84811-18.82416-22.84811 C495.03473,438.13504,488.73016,449.22772,488.73016,461.56824z"></path> <path class="st0" d="M544.41455,489.32983v-56.19785h8.31653l18.9137,28.43625c4.37622,6.58517,7.7912,12.50766,10.59125,18.26297 l0.1731-0.08359c-0.69849-7.50461-0.87762-14.34055-0.87762-23.09885v-23.51678h7.18225v56.19785h-7.70758l-18.73462-28.51385 c-4.11346-6.25681-8.05383-12.6748-11.03296-18.75848l-0.2627,0.08359c0.43579,7.08667,0.61493,13.83902,0.61493,23.18243v24.0123 h-7.17627V489.32983z"></path> </g> </svg> 