<svg xmlns="http://www.w3.org/2000/svg" viewBox="0 0 321.41 63.84"><defs><style>.cls-1{fill:#040d33;fill-rule:evenodd;}</style></defs><title>logo</title><g id="Layer_2" data-name="Layer 2"><g id="Layer_1-2" data-name="Layer 1"><path class="cls-1" d="M310.21,36V47.2c0,.61.2,1.55,2.49,2.06.08,1.25-4,4.49-5,4.15-1.67-.68-2.2-3.64-4.1-3.14-.27,0-.51-.6-.42-1,.61-.51,1.75-1.16,1.78-2.06V33a1.74,1.74,0,0,0-2-1.65c-.57.19-1.37-.23-.41-1a29.47,29.47,0,0,1,3.29-2.79c2-1.55,4.39,2.5,4.39,3.58v.58c.29,1,5.1-5.87,6.14-4.24A12.33,12.33,0,0,0,321,31c.76.28.35.84-.2,1.2-1.14.46-2.66,2-4.07,2-2,0-3.67-1.2-5.16-.18a2.64,2.64,0,0,0-1.35,2ZM285.55,53.48c1.43,0,7.6-5,7.85-3.84s2.66,4.31,4.15,3.79a9.89,9.89,0,0,0,2.71-2.16c2-2-1.61-2.19-2-5.29V33.72c0-.71,1.39-2,1.64-2.34.39-.58-.32-.75-1.53-1.64a9.55,9.55,0,0,1-1.92-2.08c-.38-.45-.93-.93-1.61-.05-1.48,1.66-8.32,5.28-8.13,4.06,0-1.27-.35-3.65-2.06-4.11-2.72-.73-4.07,1.58-3.41,3.66.8,2.54,3.07,4.32,4.85,6.1.52.55.54.72-.09,1.17-2.92,2.58-6.81,4.49-6.84,9.23,0,3.72,4.16,5.66,6.37,5.76Zm2.19-4.31a3.36,3.36,0,0,1-3.34-2.79,7.09,7.09,0,0,1,3.45-6.61c.33-.33,1.27.73,1.54.94,1.19.94,1.51.3.82-.67-1-1.41-1.93-2.8-2.95-4.13-.32-.47-.68-1.6-.32-1.8,2-1,6.14-3.2,6.12-.18V45.25c0,1.68-4,4-5.32,3.92Zm-149,4.31c-2.21-.1-6.38-2-6.37-5.76,0-4.74,3.92-6.65,6.84-9.23.63-.45.6-.62.09-1.17-1.78-1.78-4-3.56-4.85-6.1-.66-2.08.69-4.39,3.41-3.66,1.71.46,2,2.84,2.06,4.11-.19,1.22,6.65-2.4,8.13-4.06.68-.88,1.23-.4,1.61.05a9.55,9.55,0,0,0,1.92,2.08c1.21.89,1.92,1.06,1.53,1.64-.25.38-1.66,1.63-1.64,2.34V46c.37,3.1,4,3.29,2,5.29a9.89,9.89,0,0,1-2.71,2.16c-1.49.52-3.85-2.59-4.15-3.79s-6.42,3.79-7.85,3.84Zm2.19-4.31c1.35,0,5.36-2.24,5.32-3.92V33.93c0-3-4.08-.8-6.12.18-.36.2,0,1.33.32,1.8,1,1.33,1.94,2.72,2.95,4.13.69,1,.37,1.61-.82.67-.27-.21-1.21-1.27-1.54-.94a7.09,7.09,0,0,0-3.45,6.61,3.36,3.36,0,0,0,3.34,2.79ZM92.38,59.77c-2.68-3-1.85-9.16,2.45-12.36a17.41,17.41,0,0,1,14.92-2.57V13.08c-4.29.65-9.18,1.14-13.23-.66a7.16,7.16,0,0,1-4.17-5.31c-.29-2.55.47-1,.81-.39,3.25,3.57,7.74,2.24,12,1.45,5-.93,11.27-2.49,16.39-1.72,4.35.65,7.85,4.13,7.86,8.44V43.8c.24,1.43,1.32,2.19.57,3.41-.46.84-4-1.25-9.19,1.4a34.24,34.24,0,0,0-6.92,5.31c-.76.84-4.49-3.5-8.36-4.24S96.42,49.62,94.23,53C89.35,60.58,102.45,65.41,109,58c1-1.11,2.07.1,1,1-5.28,4.38-12.88,6-17.57.79Zm24.9-11.72c1,0,6.17-2.15,6.17-4V37.64c0-1.1-1.84-2.44-5.81-2.39-5.78.07-5.72,1.42-5.72,2.5v7.68c2,.76,4.35,2.59,5.36,2.62Zm-17.9-4.16c-.26.52,3.53-.39,4.9-1.41A6.38,6.38,0,0,0,107,37.19V18.38c0-2.35.92-3,.83-3.25-.6-.57-6.65,1.2-6.65,6.52v3c0,.79-.15,1.29-.78,1.51-1.39.38-4.43,1-4.92,4.88A6.8,6.8,0,0,0,96,34c.32.57.55.79.83.08a4.74,4.74,0,0,1,1.4-2c.72-.58,3-.7,3,.65V39.3a7.9,7.9,0,0,1-1.85,4.59Zm12.54-10.65c0,2.25,2.9.22,5.73.21s5.8,1.91,5.8,0V25.81c0-1.84-2.79-.08-5.8,0s-5.72-1.78-5.73-.21v7.67Zm5.69-9.33c3.07,0,5.84-.5,5.84-2.3,0-5.71,0-9.28-5.32-9.28a42,42,0,0,0-6.21.44v9.08c0,1.47,2.62,2.08,5.69,2.06Zm101.8,39.58c-4-.56-5-4.19-3.42-8.09,1.88-4.77,7.4-9.47,13.83-11.42a22.32,22.32,0,0,1,9.78-.68c.84-1.45,3-4.86,3.79-6.55-5.75-1.51-12.37-3.57-15.44-7-2.42-2.75-1.94-7-.32-10.29.12-.58.9-1,.76.14,0,3.18.82,4.48,3.07,6.38,2.89,2.43,11.26,4.68,15,5.65.4-.56,1.21-2,1.6-2.74-4.14-1-10.71-3-14.2-5.74a8.65,8.65,0,0,1-2.77-10.5c2.39-5.81,9.94-6.71,15.57-5.87a23.28,23.28,0,0,1,7.68,2.72c1.12.46,2-.08,3.52-.56,1.22,1.53-7.83,8.21-8.58,6.79-2.38-4.55-9-8.63-13.83-5.27-1.65,1.15-3.91,4.46-.09,7.55,3.53,2.86,10.74,4.14,16.21,5.7,1.88-2.49,3.79-4.95,5.87-7.34,1-1.13,3.71-4.38,3.62-2.79.33,2.88-3.5,5-5.09,7.12-.54.72-2.24,2.84-2.7,3.67,2.17,1,5.15,1.94,7.9,5.4,3.85,4.86,1.17,11-1.63,14.35-1,1.18-10.7,11.12-12.08,10-3.41-2.06-5-4.14-9-5.6-3.62,5.4-11.85,16-19.07,15Zm.85-1.06c5.23.47,15.23-12.3,16.34-14.57-7.29-2.58-12.81.14-17.58,5.44-2.5,2.78-4.41,8.62,1.24,9.13Zm31-13.48c1,.82,6.5-5.45,7.54-7.05,1.81-2.77,1.35-7.72-1.39-9.44a20.08,20.08,0,0,0-7.6-3.05c-.43.86-1.11,1.91-1.4,2.68,4,1.31,7.06,2.79,8.36,6.17a4.86,4.86,0,0,1-2.06,5.67c-.62.4-1.28.1-.61-.48,1.41-1.44.06-3-.69-3.34a34.68,34.68,0,0,0-8.16-2.74c-.77,1.37-3.21,5.33-3.73,6.29A34.69,34.69,0,0,1,251.28,49Zm-66,14.75a.6.6,0,1,1,.22-1.16c4.16.68,10.16.81,13.13-1.26,2.29-1.58-.93-3.15-4.62-1.9-2.43.54-8.42,3.07-10.72,1.12-2.63-2.24,1.34-5.57,3.23-6.8.28-.18.69-.46.1-.62-2.11-.72-4.53-3.16-4.47-5.55V33.9c0-1.33-1-1.88-2.43-1.51-.83.2-1.54-.16-.47-.85a36.38,36.38,0,0,0,4.71-4.1c.73-.49,1.17-.37,1.54.07a11.05,11.05,0,0,0,2,2.23c1.2.89,1.92,1.06,1.53,1.64-.14.21-1.61,1.68-1.62,2.5h0V47.49c0,2.77,3.23,4,5.06,4s4.63-1.27,4.63-4V33.9c0-1.33-1-1.88-2.43-1.51-.83.2-1.54-.16-.47-.85a35.1,35.1,0,0,0,4.71-4.1c.73-.49,1.17-.37,1.54.07a11.05,11.05,0,0,0,2,2.23c1.21.89,1.92,1.06,1.53,1.64-.14.21-1.61,1.68-1.61,2.5h0V47.45c.17,3.31-3.64,5-6.26,5.71-1.3.31-9.93,1.19-9.93,3.26.15,1.66,2.94.44,7.34-1.07,2.81-1,7.62-.55,8.26,2.52a4.47,4.47,0,0,1-3,4.87c-4.12,1.61-8.93,1-13.37,1ZM63.07,47.39V33.85c0-.7-1.29-1.42-1.63-2.12-.21-.43-.12-.66.27-.68a11.08,11.08,0,0,0,3-.16A13.92,13.92,0,0,0,71,27.83c2-2.07,4.33.49,5.29,1.89s3.87,5.34,2.79,6.37c-3,2.4-7.59,5.16-10.76,7.35v3.23c0,.64,4.7,3,5.34,2.64a4.9,4.9,0,0,0,1.53-.77c1.83-1.19,2-.26.39,1.09-.75.74-5.49,4-6.41,3.85-1.67-.22-5-4-7.43-3.21-.27,0-.51-.6-.42-1,.56-.48,1.59-1.1,1.76-1.87Zm5.24-13.33v6.7a59.51,59.51,0,0,0,5.89-3.88c.56-.4-1.74-3.26-2.66-4.56-.92-1-1.4-2.25-3.16-.82-.26.26-.1,1.7-.07,2.56Zm-63,9.08A24.25,24.25,0,0,1,5,26.76a20.75,20.75,0,0,1,7.32-9.34,24.7,24.7,0,0,1,4-2.56c.46-.21,1.9-.72.6.62-2.5,3.27-6.34,6.74-7.41,12.8a18.5,18.5,0,0,0,4,15.34c2.89,3.23,5.15,5,9.52,5.68,2.31.37,5.34.42,7.45-1.16V15.77c-1.53-.08-2.91-.36-4.51-.5a12.1,12.1,0,0,0-1.84,1.94V38.49c-.28,3.46-1.46,5.81-4.94,7-.46.08-1.57.26-1.54-.08a27.7,27.7,0,0,0,.66-5.67v-14c0-4.62-1.19-2.29-2.8-1.84-.39,0-.5-.36-.83-.87.63-.46,5.83-4.68,6.77-5.65a6.65,6.65,0,0,0,1.95-2.56,52.48,52.48,0,0,0-7.09-2C12.17,12.36,7.08,11.73,3.43,15c-1.9,1.69-3.37,5.3-.07,9.13.49.56,1,1.6-.42.47-1.76-1.76-3.45-3.61-2.8-8,.53-3.52,5.79-9.1,13.35-9,8,0,15,2.27,22.93,1.92.2,0,.64-.26.71.21.53,3.15-2.81,5.74-4.78,6.13-.24.1-.09,1.14-.17,1.38V45.38c.06.32.33,1.51.83,1.68.32.12,1.15-.55,1.58-1,1.52-1.4,2.32-3.12,2-1.62-1.39,6.24-6.82,8.83-12.66,9.29C16,54.4,8.61,51,5.29,43.14ZM41.52,53.41c1,.34,5-2.9,5-4.15C44.2,48.75,44,47.81,44,47.2V35.29l4.46-3c1-.83,3.25.14,3.28,1.83V47.2c0,.9-1.17,1.55-1.77,2.06-.1.41.14,1,.42,1,1.89-.5,2.42,2.46,4.09,3.14,1,.34,5.06-2.9,5-4.15C57.16,48.75,57,47.81,57,47.2V33.47c0-.66,1.22-1.18,1.2-1.59-.29-1.54-4.1-5-5.38-4.78C51.77,27,44.93,32,44,32.71V17.84c0-5.07,3.32-8.18,3-8.65-.86-.87-5.06,4.17-5.4,4.32-.91.55-1.46-1.48-2.75-1.26-.25.08-.09.76-.08,1v34c0,.9-1.17,1.55-1.78,2.06-.09.41.15,1,.42,1,1.9-.5,2.43,2.46,4.1,3.14Zm230.11,0c-1.67-.68-2.2-3.64-4.09-3.14-.27,0-.52-.6-.42-1,.6-.51,1.74-1.16,1.77-2.06V32.92c0-1.67-4.54-.41-4.61-1.23a8.33,8.33,0,0,1,.71-3c.36-1.34,3.91-.28,3.91-1.06V19.29c0-1.06,3-3.17,4.57-3.88.67-.32.7.2.65.94V27.59c0,.95,5.87-1.17,4.26,2.74a2.84,2.84,0,0,1-1.31,1.56c-1.25.38-3-.29-2.95,1.15v1h0V47.2c0,.61.2,1.55,2.49,2.06.09,1.25-4,4.49-5,4.15ZM175.69,17.84a11,11,0,0,1,.12-1.53l3.19-.37h0l-3.08-.36v-.06c.75-3.69,3-5.94,2.78-6.33-.87-.87-5.06,4.17-5.41,4.32-.9.55-1.45-1.48-2.75-1.26-.24.08-.08.76-.08,1v1.7l-3.07-.36-2.67,1.36,2.67,1.36,3.07-.36v4l-3.29-2.88-3-.15,1.63,2.51,4.65,1.59V47.2c0,.9-1.17,1.55-1.77,2.06-.1.41.15,1,.42,1,1.9-.5,2.43,2.46,4.09,3.14,1,.34,5.06-2.9,5-4.15-2.28-.51-2.48-1.45-2.49-2.06V17.84Zm-12.16,11.9c1.21.89,1.92,1.06,1.53,1.64-.14.21-1.61,1.68-1.61,2.5h0V47.2c0,.61.2,1.55,2.49,2.06.09,1.25-4,4.49-5,4.15-1.67-.68-2.2-3.64-4.09-3.14-.28,0-.52-.6-.42-1,.6-.51,1.74-1.16,1.77-2.06V33.9c0-.7,0-1.89-1.53-2.12-1.14-.18-1.15-.39-.5-1.1a24,24,0,0,1,3.64-3.1l-.49-4.95L160.71,20l1.36,2.67-.48,4.87a8.83,8.83,0,0,0,1.94,2.24Zm-.81-10.32,2.51,1.63,2.27,6.65h0l-4.63-5.29-.15-3Zm-4,0-2.52,1.63-2.27,6.65h0l4.63-5.29.16-3ZM157.22,18l-3,.15-5.29,4.63h0l6.65-2.27L157.22,18Zm-.54-2L154,14.58l-11.6,1.36h0L154,17.3l2.67-1.36Zm.54-2-1.63-2.52-6.65-2.26h0l5.29,4.62,3,.16Zm1.48-1.48-2.52-1.63-2.27-6.65h0l4.63,5.29.16,3Zm2-.53,1.36-2.67L160.71,0h0l-1.36,9.25,1.36,2.67Zm2,.53.15-3,4.63-5.29h0l-2.27,6.65-2.51,1.63Zm1.47,1.48,1.63-2.52,6.65-2.26h0l-5.29,4.62-3,.16Zm-3.48,6.32-1.23,2.4,1.23,12.55v-15Zm0-8.63V.92l1.22,8.3-1.22,2.4Zm2.15.58,4.29-7.42-2,6-2.26,1.47Zm1.58,1.58,7.43-4.29-4.74,4.15-2.69.14Zm.58,2.16h12.82l-10.42,1.22L165,15.94Zm-.58,2.16,7.43,4.28-6-2-1.47-2.25Zm-1.58,1.58,4.29,7.42L163,22.36l-.14-2.68Zm-4.31,0-2.26,1.46-2,6,4.29-7.42ZM157,18.09l-2.69.15-4.74,4.14L157,18.09Zm-.58-2.15H143.57L154,14.71l2.4,1.23Zm.58-2.16-7.43-4.29,6,2L157,13.78Zm1.58-1.58-4.29-7.42,4.15,4.73Z"/></g></g></svg>